#!OML:ASF E:/inclinewalkrobotboard/Project1/Captureday1/Session1/subject1.ASF
:FULLY-SPECIFIED
:DEGREES
238
root 0 0 0 -1.4577610247046149 -1.3901741884528884 -3.9991543712011657
lowerback 19.316408719852127 3.040106257447602 0.22717730910666267
upperback 2.270766037306252 4.106457989195905 -0.5280912442908905
thorax -8.35993482620226 1.9800036491826574 -1.348082453706675
lowerneck -8.730174583056133 -5.984022198592887 -1.6788843704080298
upperneck -0.7519108828979846 -8.645453114169225 6.028482574638164
head 1.415371102838355 -3.95557755316249 1.62269207454095
rclavicle 2.835586107942659E-15 -1.3522899831705713E-15
rhumerus 15.525933824073716 -11.04368820425654 -50.16992888966247
rradius 115.14281185646254
rwrist 4.057757381488301
rhand -19.479159348986634 -23.201370540304808
rfingers 7.125019999999947
rthumb 6.863131056284337 -53.058300904975624
lclavicle -3.434984814520416E-16 -5.579686337520312E-17
lhumerus -45.03629921440037 -7.291301104268734 82.39978930115731
lradius 61.867224372560614
lwrist 10.14740912649267
lhand -14.008508442277858 -22.120671713002718
lfingers 7.125019999999901
lthumb 12.043646873857853 7.606037318203915
rfemur -6.618857758574468 9.234826652115578 35.285186204055975
rtibia 27.091305047957583
rfoot -19.032490729657276 -8.274227810437235
rtoes 7.745528589780578
lfemur -23.207002463029333 2.7820837413321144 -14.950295011587485
ltibia 58.239225182569285
lfoot -1.4704319394985497 -7.062932971747029
ltoes -0.5472589518677324
239
root 0 0 0 -1.4797755890570954 -1.4243062749265598 -3.9922380178124612
lowerback 19.455065250441166 3.041921292093772 0.21938525883694515
upperback 2.2856546452667716 4.1085321583117365 -0.5385811236844282
thorax -8.424675689578105 1.980297901131542 -1.3570556578735842
lowerneck -8.729759832360685 -5.983029555769307 -1.645780965819903
upperneck -0.9575271602501765 -8.640583835817337 5.995241655835844
head 1.3543287783090028 -3.955823293217671 1.6087625737038427
rclavicle 1.4887364473127389E-15 -1.3938052745307644E-15
rhumerus 26.3103670484741 -8.575913860999165 -40.66214785503997
rradius 130.53047657958865
rwrist -6.941253819914037
rhand -19.57899707122302 -25.850296879261986
rfingers 7.125019999999953
rthumb 6.769971538866993 -55.669896952148335
lclavicle -6.7174606141683E-16 -9.28823087118814E-17
lhumerus -46.09425844918197 -6.806076798791992 81.27792996862262
lradius 61.897798920459664
lwrist 10.476020400745737
lhand -14.250300805950223 -20.970228106925735
lfingers 7.125019999999884
lthumb 11.810345547633963 8.757346312556148
rfemur -5.622308978665451 9.1390654538868 35.347560095356286
rtibia 27.315779590834495
rfoot -19.475143352890683 -8.261566873216724
rtoes 7.312231285535287
lfemur -23.801929879411354 2.5671954299153765 -15.358541555232524
ltibia 56.074994737131135
lfoot -1.7137076624272787 -6.637035195694648
ltoes 1.3288909081072902
240
root 0 0 0 -1.4951679242787286 -1.4752861854218573 -3.980918506127709
lowerback 19.673506108771242 3.0297490889742646 0.18582737832761143
upperback 2.301535554959308 4.091264532630536 -0.5362960679261288
thorax -8.53343120547201 1.9710371638994975 -1.337355789714151
lowerneck -8.69392269985799 -5.971293380053563 -1.5737097684540806
upperneck -1.1659506423506354 -8.614018599196967 5.901995834150021
head 1.2961802727675042 -3.948251764294813 1.571161679012869
rclavicle -1.0001609246159762E-16 -5.124001041072021E-16
rhumerus 34.01273840897284 -6.335653009295882 -32.79752520591495
rradius 143.7638474774912
rwrist -17.616738328805145
rhand -19.642287342734168 -28.977085356567056
rfingers 7.125019999999958
rthumb 6.713270558634789 -58.78183183200629
lclavicle -1.1222480772697889E-15 2.338111659649953E-16
lhumerus -47.05285419307339 -6.319956395052899 80.1522956229428
lradius 61.937209233777544
lwrist 10.781221003800523
lhand -14.51414193140949 -19.97806604509224
lfingers 7.125019999999868
lthumb 11.558611839046382 9.765328645864496
rfemur -4.719703857816271 8.959120031396775 35.340896274518
rtibia 27.996859239693542
rfoot -19.789318220755757 -8.237410747706944
rtoes 6.709767697037763
lfemur -24.529822008549278 2.1718457911404756 -16.181197532355924
ltibia 52.33206930164398
lfoot -1.97029693390364 -6.07352386062736
ltoes 4.656145187418659
241
root 0 0 0 -1.4913270651469566 -1.4929053466239772 -3.976861591119205
lowerback 19.79378418699025 3.0190226836545913 0.15402146632451208
upperback 2.29864318417966 4.07616172795868 -0.5268338268482009
thorax -8.604897710796468 1.9635143611897816 -1.3101494604373334
lowerneck -8.653152891225258 -5.9636859237285025 -1.5223005725654402
upperneck -1.1867759975298728 -8.598766822922695 5.8382944066411735
head 1.2964569827654842 -3.942936192566977 1.544089987723853
rclavicle -2.4245880083166974E-16 8.657111439014647E-17
rhumerus 35.22788646721613 -5.783687715857322 -31.154128508271132
rradius 146.6864803412274
rwrist -20.38974375813133
rhand -19.658431001636696 -29.912788235169675
rfingers 7.12501999999996
rthumb 6.6975851845809045 -59.72536975143331
lclavicle -1.1885704314993087E-15 5.050385917172004E-16
lhumerus -47.2508977652351 -6.187934818153172 79.85422222802781
lradius 61.94608063797353
lwrist 10.846404835380222
lhand -14.59628244108042 -19.79681743193886
lfingers 7.125019999999865
lthumb 11.482162950286904 9.960034826146705
rfemur -4.748299228630275 8.82543183847621 35.243454624072484
rtibia 28.710752175725844
rfoot -19.66249946262152 -8.252714740730632
rtoes 6.380953207998618
lfemur -24.82560959399046 1.8433105659111022 -16.806008792245613
ltibia 49.602136786308535
lfoot -2.014484521777316 -5.774681825368677
ltoes 6.969301356082347
